<svg xmlns="http://www.w3.org/2000/svg" xmlns:xlink="http://www.w3.org/1999/xlink" version="1.1" x="0px" y="0px" viewBox="0 0 100 125" enable-background="new 0 0 100 100" xml:space="preserve"><g><path d="M-122.362,710.157v-5.865c0-1.077-0.462-2.044-1.298-2.72c-0.831-0.674-1.886-0.926-2.935-0.702l-42.424,9.074h-1.343v66   h46.5c3.033,0,5.5-2.468,5.5-5.5v-55C-118.362,712.933-120.057,710.813-122.362,710.157z M-125.967,703.804   c0.126-0.026,0.221-0.061,0.419,0.101c0.134,0.107,0.186,0.217,0.186,0.388v5.652h-29.315L-125.967,703.804z M-121.362,770.444   c0,1.379-1.122,2.5-2.5,2.5h-43.5v-60h43.5c1.378,0,2.5,1.121,2.5,2.5V770.444z"/><path d="M-144.362,716.944c-9.098,0-16.5,7.402-16.5,16.5s7.402,16.5,16.5,16.5s16.5-7.402,16.5-16.5   S-135.264,716.944-144.362,716.944z M-136.396,731.944c-0.068-1.713-0.252-3.334-0.538-4.835c1.099-0.577,2.13-1.29,3.081-2.121   c1.571,1.949,2.612,4.34,2.903,6.956H-136.396z M-144.362,746.944c-1.236,0-2.807-1.941-3.856-5.299   c1.24-0.386,2.54-0.592,3.856-0.592c1.323,0,2.619,0.208,3.855,0.592C-141.555,745.003-143.126,746.944-144.362,746.944z    M-137.723,742.888c0.582,0.347,1.136,0.741,1.663,1.18c-0.889,0.696-1.862,1.287-2.909,1.745   C-138.499,744.946-138.077,743.973-137.723,742.888z M-149.756,745.813c-1.047-0.459-2.021-1.05-2.91-1.746   c0.525-0.436,1.083-0.824,1.667-1.171C-150.645,743.977-150.225,744.948-149.756,745.813z M-144.362,738.054   c-1.553,0-3.085,0.24-4.554,0.679c-0.205-1.163-0.352-2.425-0.413-3.788h9.933c-0.061,1.357-0.207,2.614-0.41,3.773   C-141.271,738.283-142.802,738.054-144.362,738.054z M-149.329,731.944c0.059-1.321,0.201-2.546,0.395-3.68   c1.475,0.44,3.011,0.681,4.571,0.681c1.566,0,3.104-0.232,4.573-0.67c0.193,1.131,0.334,2.352,0.393,3.669H-149.329z    M-144.362,719.944c1.248,0,2.839,1.979,3.887,5.398c-1.246,0.39-2.553,0.603-3.888,0.603c-1.329,0-2.636-0.216-3.886-0.608   C-147.2,721.921-145.609,719.944-144.362,719.944z M-151.035,724.095c-0.598-0.357-1.17-0.761-1.708-1.215   c0.909-0.723,1.91-1.332,2.987-1.804C-150.24,721.969-150.674,722.972-151.035,724.095z M-138.968,721.076   c1.073,0.47,2.07,1.077,2.977,1.796c-0.538,0.454-1.104,0.863-1.699,1.221C-138.051,722.971-138.485,721.968-138.968,721.076z    M-152.943,723.03l-1.788,2.101c0.908,0.772,1.9,1.422,2.943,1.969c-0.287,1.504-0.471,3.128-0.54,4.845h-5.446   C-157.376,728.368-155.582,725.208-152.943,723.03z M-157.774,734.944h5.446c0.07,1.756,0.26,3.419,0.559,4.951   c-1.09,0.569-2.122,1.251-3.06,2.06C-156.425,739.997-157.48,737.585-157.774,734.944z M-133.903,741.967   c-0.943-0.816-1.962-1.519-3.048-2.088c0.296-1.528,0.485-3.185,0.555-4.935h5.446   C-131.244,737.59-132.303,740.006-133.903,741.967z"/><rect x="-160.362" y="755.944" width="32" height="3"/><rect x="-152.362" y="760.945" width="15.999" height="3"/></g><g><path d="M97.5,70.051v-5.548c0-2.955-0.442-5.809-1.255-8.503h0.085l-0.599-1.558c-0.047-0.128-0.098-0.254-0.146-0.382   l-0.038-0.099c-0.005-0.013-0.011-0.024-0.016-0.037c-0.234-0.607-0.488-1.206-0.761-1.794c0-0.001,0-0.001-0.001-0.002   c-0.559-1.203-1.196-2.362-1.905-3.472c-0.002-0.002-0.003-0.004-0.004-0.006c-1.79-2.798-4.038-5.273-6.639-7.323   c-0.002-0.002-0.004-0.004-0.007-0.006L85.807,41h-0.002c-4.953-3.762-11.123-6-17.808-6H57.499v-3.288   C65.9,30.442,73.171,28.084,73.171,24c0-7.119-22.083-9-33.76-9c-12.069,0-23.184,1.559-29.005,4.067L9.5,19.458v9.085l0.906,0.391   c4.008,1.727,10.526,3.003,18.138,3.631V35H17.003C10.108,35,4.5,40.608,4.5,47.503V70H3.003C1.623,70,0.5,71.123,0.5,72.503v1.994   C0.5,75.877,1.623,77,3.003,77H4.5h7.63c0.724,4.526,4.644,8,9.37,8s8.646-3.474,9.37-8h34.76c0.724,4.526,4.644,8,9.37,8   c5.238,0,9.5-4.262,9.5-9.5S80.238,66,75,66c-4.727,0-8.646,3.474-9.37,8H30.87c-0.724-4.526-4.644-8-9.37-8s-8.646,3.474-9.37,8   H8.719H3.5v-1h6v-3h-2V56h15.07v-3H7.5v-5.497c0-5.24,4.263-9.503,9.503-9.503h50.994c4.408,0,8.565,1.088,12.227,3H69.999   c-1.93,0-3.5,1.57-3.5,3.5v8c0,1.93,1.57,3.5,3.5,3.5h23.094C94,58.671,94.5,61.529,94.5,64.503V70h-7v3h9v1h-10v3h10.497   c1.38,0,2.503-1.123,2.503-2.503v-1.994C99.5,71.295,98.64,70.284,97.5,70.051z M75,69c3.584,0,6.5,2.916,6.5,6.5S78.584,82,75,82   s-6.5-2.916-6.5-6.5S71.416,69,75,69z M21.5,69c3.584,0,6.5,2.916,6.5,6.5S25.084,82,21.5,82S15,79.084,15,75.5S17.916,69,21.5,69z    M39.411,18c16.916,0,27.293,2.863,30.027,4.973H12.5v-1.515C18.189,19.314,28.339,18,39.411,18z M12.5,25.973h55.288   C63.583,27.9,53.896,30,39.411,30c-11.074,0-21.223-1.314-26.911-3.457V25.973z M31.544,32.771C34.089,32.919,36.724,33,39.411,33   c4.19,0,9.719-0.244,15.088-0.884V35H31.544V32.771z M69.999,53c-0.271,0-0.5-0.229-0.5-0.5v-8c0-0.271,0.229-0.5,0.5-0.5h14.759   c3.002,2.46,5.426,5.535,7.104,9H69.999z"/><path d="M45.501,52.5v-8c0-1.93-1.57-3.5-3.5-3.5H32c-1.93,0-3.5,1.57-3.5,3.5v8c0,1.93,1.57,3.5,3.5,3.5h10.001   C43.931,56,45.501,54.43,45.501,52.5z M31.5,52.5v-8c0-0.271,0.229-0.5,0.5-0.5h10.001c0.271,0,0.5,0.229,0.5,0.5v8   c0,0.271-0.229,0.5-0.5,0.5H32C31.729,53,31.5,52.771,31.5,52.5z"/><path d="M64.501,44.5c0-1.93-1.57-3.5-3.5-3.5H51c-1.93,0-3.5,1.57-3.5,3.5v8c0,1.93,1.57,3.5,3.5,3.5h10.001   c1.93,0,3.5-1.57,3.5-3.5V44.5z M61.501,52.5c0,0.271-0.229,0.5-0.5,0.5H51c-0.271,0-0.5-0.229-0.5-0.5v-8   c0-0.271,0.229-0.5,0.5-0.5h10.001c0.271,0,0.5,0.229,0.5,0.5V52.5z"/><path d="M75,79.5c2.206,0,4-1.794,4-4s-1.794-4-4-4s-4,1.794-4,4S72.794,79.5,75,79.5z M75,74.5c0.552,0,1,0.448,1,1s-0.448,1-1,1   s-1-0.448-1-1S74.448,74.5,75,74.5z"/><path d="M21.5,79.5c2.206,0,4-1.794,4-4s-1.794-4-4-4s-4,1.794-4,4S19.294,79.5,21.5,79.5z M21.5,74.5c0.552,0,1,0.448,1,1   s-0.448,1-1,1s-1-0.448-1-1S20.948,74.5,21.5,74.5z"/><rect x="32.5" y="70" width="31" height="3"/></g><text x="0" y="115" fill="#000000" font-size="5px" font-weight="bold" font-family="'Helvetica Neue', Helvetica, Arial-Unicode, Arial, Sans-serif">Created by Nikita Kozin</text><text x="0" y="120" fill="#000000" font-size="5px" font-weight="bold" font-family="'Helvetica Neue', Helvetica, Arial-Unicode, Arial, Sans-serif">from the Noun Project</text></svg>