<svg xmlns="http://www.w3.org/2000/svg" xmlns:xlink="http://www.w3.org/1999/xlink" version="1.1" x="0px" y="0px" viewBox="0 0 100 125" style="enable-background:new 0 0 100 100;" xml:space="preserve"><g><path d="M93.5,93.2H82.8c3.5-4.9,6-10.6,7.2-16.6c0.2-0.9,0.3-1.9,0.5-2.8c0-0.1,0-0.2,0-0.3c1.2-9-0.5-18.3-4.8-26.4   c-0.2-0.4-0.6-0.7-1-0.8c-0.4-0.1-0.9,0-1.2,0.3c-5.5,4.4-9.8,10.1-12.6,16.4c0,0,0,0,0,0c-0.1,0.1-0.1,0.2-0.1,0.3   c-1.2,2.8-2.1,5.6-2.7,8.6c-1.4,7-1.1,14.2,0.9,21.1h-8.7c2.8-5.9,4.3-12.3,4.3-18.8c0-1,0-1.9-0.1-2.8c0-0.1,0-0.2,0-0.3   c-0.6-9.1-4.1-17.8-10-24.9c-0.6-0.7-1.7-0.7-2.3,0c-4.5,5.4-7.6,11.8-9.1,18.6c0,0,0,0,0,0c0,0.1-0.1,0.2-0.1,0.3   c-0.6,2.9-0.9,6-0.9,9c0,6.5,1.5,13,4.3,18.8H35.6c-7.1-26.8-9.3-57.7,5.7-65.3c0.7-0.4,1-1.2,0.7-2c-0.3-0.7-1.2-1.1-2-0.7   C29,30,21.6,43.3,18,64.6c-2.1,12.6-2.2,24.5-2.2,28.6H6.5c-0.8,0-1.5,0.7-1.5,1.5s0.7,1.5,1.5,1.5h87.1c0.8,0,1.5-0.7,1.5-1.5   S94.4,93.2,93.5,93.2z M84.7,83.6l-14.3-8.1c0.1-0.9,0.3-1.8,0.5-2.7c0.5-2.3,1.1-4.5,2-6.7l14.5,8.2c-0.1,0.6-0.2,1.2-0.3,1.7   C86.5,78.6,85.7,81.1,84.7,83.6z M83.9,50.3c3.1,6.5,4.4,13.7,3.8,20.8l-13.7-7.7C76.4,58.4,79.8,53.9,83.9,50.3z M44.9,74.4   c0-2.3,0.2-4.6,0.6-6.9l15.8,5.1c0,0.6,0,1.2,0,1.8c0,2.6-0.3,5.3-0.8,7.8L45,77.2C45,76.3,44.9,75.3,44.9,74.4z M53.2,49.8   c4.3,5.7,7,12.5,7.9,19.6l-14.9-4.9C47.5,59.2,49.8,54.2,53.2,49.8z M29,40c-4.8,17,0.5,42,3.5,53.2H18.8   C18.8,86.5,19.1,57.6,29,40z M49.5,93.2c-2.1-4-3.5-8.3-4.1-12.8l14.4,4.7c0.1,0,0.1,0,0.2,0c-0.8,2.8-1.8,5.5-3.1,8.1H49.5z    M72,93.2c-1.5-4.7-2.1-9.6-1.8-14.5l13.1,7.4c0.1,0,0.1,0,0.2,0.1c-1.2,2.5-2.7,4.8-4.4,6.9H72z"/><path d="M15.1,23c5.4-5.4,14.3-5.4,19.7,0c0.3,0.3,0.7,0.4,1.1,0.4s0.8-0.1,1.1-0.4c0.6-0.6,0.6-1.5,0-2.1   c-6.6-6.6-17.3-6.6-23.9,0c-0.6,0.6-0.6,1.5,0,2.1C13.6,23.6,14.5,23.6,15.1,23z"/><path d="M25.7,6.8c7.7,0,13.9,6.2,13.9,13.9c0,0.8,0.7,1.5,1.5,1.5s1.5-0.7,1.5-1.5c0-9.3-7.6-16.9-16.9-16.9   c-0.8,0-1.5,0.7-1.5,1.5S24.9,6.8,25.7,6.8z"/><path d="M47.5,25.4c2.9-2,6.5-2.7,10-2.1C61,24,64,26,66,28.9c0.3,0.4,0.8,0.7,1.2,0.7c0.3,0,0.6-0.1,0.8-0.3   c0.7-0.5,0.9-1.4,0.4-2.1c-2.5-3.6-6.2-6-10.4-6.9c-4.3-0.8-8.6,0.1-12.2,2.5c-0.7,0.5-0.9,1.4-0.4,2.1   C45.9,25.7,46.8,25.9,47.5,25.4z"/><path d="M44.8,30.1c7.3,0,13.3,6,13.3,13.3c0,0.8,0.7,1.5,1.5,1.5s1.5-0.7,1.5-1.5c0-9-7.3-16.3-16.3-16.3c-0.8,0-1.5,0.7-1.5,1.5   S44,30.1,44.8,30.1z"/></g><text x="0" y="115" fill="#000000" font-size="5px" font-weight="bold" font-family="'Helvetica Neue', Helvetica, Arial-Unicode, Arial, Sans-serif">Created by Justin Blake</text><text x="0" y="120" fill="#000000" font-size="5px" font-weight="bold" font-family="'Helvetica Neue', Helvetica, Arial-Unicode, Arial, Sans-serif">from the Noun Project</text></svg>