<svg xmlns:dc="http://purl.org/dc/elements/1.1/" xmlns:cc="http://creativecommons.org/ns#" xmlns:rdf="http://www.w3.org/1999/02/22-rdf-syntax-ns#" xmlns:svg="http://www.w3.org/2000/svg" xmlns="http://www.w3.org/2000/svg" xmlns:sodipodi="http://sodipodi.sourceforge.net/DTD/sodipodi-0.dtd" xmlns:inkscape="http://www.inkscape.org/namespaces/inkscape" version="1.1" x="0px" y="0px" viewBox="0 0 100 125"><g transform="translate(0,-952.36218)"><path style="font-size:medium;font-style:normal;font-variant:normal;font-weight:normal;font-stretch:normal;text-indent:0;text-align:start;text-decoration:none;line-height:normal;letter-spacing:normal;word-spacing:normal;text-transform:none;direction:ltr;block-progression:tb;writing-mode:lr-tb;text-anchor:start;baseline-shift:baseline;opacity:1;color:#000000;fill:#000000;fill-opacity:1;stroke:none;stroke-width:3.99999976000000010;marker:none;visibility:visible;display:inline;overflow:visible;enable-background:accumulate;font-family:Sans;-inkscape-font-specification:Sans" d="M 50 6 C 47.259126 6 44.492816 6.42629 42.3125 8.1875 C 40.132184 9.94871 38.90625 12.9143 38.90625 16.875 C 38.90625 20.8357 40.01778 24.47988 41.9375 27.21875 C 43.85722 29.95762 46.718331 31.84375 50 31.84375 C 53.281666 31.84375 56.142773 29.95762 58.0625 27.21875 C 59.982227 24.47988 61.09375 20.83571 61.09375 16.875 C 61.09375 12.9143 59.867821 9.94871 57.6875 8.1875 C 55.507179 6.42629 52.74087 6 50 6 z M 50 10 C 52.28037 10 54.077241 10.41566 55.1875 11.3125 C 56.297759 12.20934 57.09375 13.67191 57.09375 16.875 C 57.09375 20.07809 56.152103 22.95046 54.78125 24.90625 C 53.410397 26.86204 51.739574 27.84375 50 27.84375 C 48.260419 27.84375 46.589597 26.86204 45.21875 24.90625 C 43.847903 22.95046 42.90625 20.0781 42.90625 16.875 C 42.90625 13.67191 43.702248 12.20934 44.8125 11.3125 C 45.922752 10.41566 47.719624 10 50 10 z M 41.0625 35.21875 A 2.0001999 2.0001999 0 0 0 40.34375 35.40625 C 31.213701 39.55797 28.335008 47.00198 25.71875 52.90625 C 24.410621 55.85845 23.153869 58.42385 21.28125 60.34375 C 19.408631 62.26355 16.947517 63.66925 12.75 64.21875 A 2.0001999 2.0001999 0 1 0 13.25 68.1875 C 18.154143 67.5456 21.65623 65.68735 24.125 63.15625 C 26.59377 60.62525 28.032794 57.56035 29.375 54.53125 C 32.059412 48.47315 34.178289 42.61928 42 39.0625 A 2.0001999 2.0001999 0 0 0 41.0625 35.21875 z M 58.6875 35.21875 A 2.0001999 2.0001999 0 0 0 58 39.0625 C 65.821705 42.61928 67.940586 48.47315 70.625 54.53125 C 71.967207 57.56035 73.406228 60.62525 75.875 63.15625 C 78.343772 65.68735 81.845853 67.5456 86.75 68.1875 A 2.0001999 2.0001999 0 1 0 87.25 64.21875 C 83.052477 63.66925 80.591372 62.26355 78.71875 60.34375 C 76.846128 58.42385 75.589379 55.85845 74.28125 52.90625 C 71.664991 47.00198 68.786295 39.55797 59.65625 35.40625 A 2.0001999 2.0001999 0 0 0 58.6875 35.21875 z M 38.40625 57.75 A 2.0001999 2.0001999 0 0 0 36.40625 59.9375 C 36.600598 62.3649 36.817609 65.2716 36.46875 67.75 C 36.136831 70.108 35.318952 71.8601 33.75 73 C 29.393987 73.8284 24.758559 73.7288 19.71875 76.5625 C 17.056522 78.0593 15.299164 79.8895 14.53125 82 C 13.763336 84.1105 14.113508 86.36505 15.15625 88.15625 C 17.241734 91.73885 21.692609 94 26.625 94 C 31.308712 94 37.079854 91.5513 42.90625 89.25 C 42.95127 89.232 42.98623 89.2045 43.03125 89.1875 L 43.0625 89.1875 A 2.0001999 2.0001999 0 0 0 43.5625 89.25 C 47.890442 89.0439 53.207684 90.16855 58.46875 91.40625 C 63.729816 92.64405 68.913429 94 73.375 94 C 78.307395 94 82.758265 91.73885 84.84375 88.15625 C 85.886492 86.36505 86.236663 84.1105 85.46875 82 C 84.700837 79.8895 82.943476 78.0593 80.28125 76.5625 C 75.241432 73.7288 70.606013 73.8284 66.25 73 C 64.681055 71.8601 63.863172 70.108 63.53125 67.75 C 63.182389 65.2716 63.399402 62.3649 63.59375 59.9375 A 2.0060942 2.0060942 0 1 0 59.59375 59.625 C 59.400008 62.0449 59.125826 65.17905 59.5625 68.28125 C 59.999174 71.38355 61.248107 74.65115 64.25 76.59375 A 2.0001999 2.0001999 0 0 0 64.9375 76.875 C 70.052654 77.9446 74.123848 77.67615 78.3125 80.03125 C 80.407769 81.20935 81.369959 82.4164 81.71875 83.375 C 82.067541 84.3336 81.935896 85.1615 81.375 86.125 C 80.253207 88.052 77.008565 90 73.375 90 C 69.772851 90 64.712771 88.7484 59.40625 87.5 C 57.018478 86.9383 54.559336 86.39515 52.125 85.96875 C 54.333876 85.29205 56.407251 84.74265 57.8125 84.71875 A 2.0002441 2.0002441 0 0 0 57.75 80.71875 C 53.054189 80.79875 47.259266 83.23185 41.4375 85.53125 C 35.615734 87.83075 29.748858 90 26.625 90 C 22.991441 90 19.746792 88.052 18.625 86.125 C 18.064104 85.1615 17.932459 84.3336 18.28125 83.375 C 18.630041 82.4164 19.592229 81.20935 21.6875 80.03125 C 25.87614 77.67615 29.947346 77.9446 35.0625 76.875 A 2.0001999 2.0001999 0 0 0 35.75 76.59375 C 38.751904 74.65115 40.000829 71.38355 40.4375 68.28125 C 40.874171 65.17905 40.599992 62.0449 40.40625 59.625 A 2.0001999 2.0001999 0 0 0 38.40625 57.75 z " transform="translate(0,952.36218)"/></g><text x="0" y="115" fill="#000000" font-size="5px" font-weight="bold" font-family="'Helvetica Neue', Helvetica, Arial-Unicode, Arial, Sans-serif">Created by counloucon</text><text x="0" y="120" fill="#000000" font-size="5px" font-weight="bold" font-family="'Helvetica Neue', Helvetica, Arial-Unicode, Arial, Sans-serif">from the Noun Project</text></svg>